<svg viewBox="0 0 1024 1024" xmlns="http://www.w3.org/2000/svg" width="96" height="96"><path d="M422.366 0H597.68c228.053 52.738 368.84 193.524 422.35 422.35v175.315C998.802 693.244 956.304 778.24 892.53 852.67a4855.035 4855.035 0 0 0-239.066-99.61c-39.255-18.751-53.87-49.296-43.829-91.643a507.776 507.776 0 0 1 71.72-79.688c36.705-90.495 44.674-183.468 23.907-278.91-77.314-124.913-182.24-155.458-314.77-91.643-40.467 29.78-68.358 68.293-83.674 115.549-11.65 87.984-1.028 172.988 31.876 255.004a507.776 507.776 0 0 1 71.72 79.688c6.016 22.337 3.362 43.59-7.97 63.751A4279.22 4279.22 0 0 1 127.519 852.67C63.743 778.24 21.245 693.244.016 597.665V422.35C53.526 193.524 194.313 52.738 422.366 0z" fill="#DEDFE0" opacity=".989"/><path d="M892.53 852.67c-80.606 86.788-178.886 142.57-294.85 167.346H422.367c-115.963-24.776-214.243-80.558-294.848-167.347a4279.22 4279.22 0 0 0 274.926-127.502c11.331-20.16 13.985-41.414 7.968-63.75a507.776 507.776 0 0 0-71.72-79.69c-32.903-82.015-43.525-167.019-31.875-255.003 15.316-47.256 43.207-85.77 83.673-115.549 132.53-63.815 237.457-33.27 314.77 91.642 20.768 95.443 12.799 188.416-23.906 278.91a507.776 507.776 0 0 0-71.72 79.69c-10.04 42.346 4.574 72.89 43.829 91.641a4855.035 4855.035 0 0 1 239.066 99.611z" fill="#F4F4F8"/></svg>