<svg xmlns="http://www.w3.org/2000/svg" width="460.224" height="128"><g fill="none"><path d="M450.627 39.41l9.597 13.658c-2.724 15.076-5.577 30.28-8.3 45.486-4.886 4.594-9.771 9.19-14.654 13.787h-65.878c-3.113-4.768-6.355-9.406-9.467-14.174 2.723-15.076 5.576-30.023 8.3-45.099l14.524-13.658h65.878zm-240.182-1.057l-8.99 49.222h41.483l4.238-22.936 20.678 17.653-2.826 15.205-14.512 13.787h-65.244l-9.375-13.787 10.66-59.144h23.888zm57.537 0l32.574 29.302 45.733-29.302h15.636l-16.027 72.931h-27.492l7.297-33.34-31.662 17.712-45.213-38.55 4.17-18.753h14.984zM430.397 62.99H396.16l-4.539 3.866c-1.037 5.798-2.205 11.725-3.242 17.653l3.112 4.252h35.014c1.297-1.289 2.594-2.577 3.632-3.737.291-1.514.575-3.028.855-4.542l1.661-9.084.855-4.542-3.112-3.866h.001zM78.005 0L65.638 82.444l-48.62 6.342-.846 5.496 62.256-1.48 11.31-68.28 41.75-10.464-15.855 91.851-32.026 21.985H0L18.074 15.432 78.005 0zM56.971 64.581l-37.523 9.302-.422 2.854 37.522-9.302.423-2.854zm2.431-15.009L21.88 58.874l-.423 2.853 37.522-9.301.423-2.854zm2.431-15.009L24.31 43.865l-.422 2.853 37.522-9.301.423-2.854zm2.431-15.115L26.742 28.75l-.423 2.854 37.522-9.302.423-2.854z" fill="#4376F8"/><path fill-opacity=".7" fill="#FFF" d="M115.633 106.015l-28.855-.106L83.607 128z"/></g><script/></svg>