<svg viewBox="0 0 1024 1024" xmlns="http://www.w3.org/2000/svg" width="96" height="96"><path d="M510.896 0c283.552 0 513.12 229.056 513.12 512 0 280.704-231.808 512-513.12 512-87.776 0-173.28-22.464-249.792-65.12h-2.24L78.8 994.816h-6.752c-11.264 0-20.256-4.48-27.008-11.232a41.376 41.376 0 0 1-11.264-35.936L69.808 772.48v-2.24C22.544 691.648.016 601.824.016 512-2.224 229.056 227.344 0 510.896 0zm-43.552 306.656H366.096l-4.16 4.224-135.04 396.448v8.448l4.288 4.224h80.096l4.224-4.224 33.728-97.056h139.2l33.728 92.832 8.448 8.448h75.936l4.224-4.224 4.16-4.224v-8.448L471.568 310.88l-4.224-4.224zm261.472-4.32h-67.52l-4.192 4.224h-4.288v4.16l-4.224 4.256V707.2l4.224 8.416 4.288 4.16h75.904l4.224-4.192v-4.224l4.192-4.224V319.2l-4.224-8.448-8.416-8.416zm-316.288 97.12l4.224 12.64 12.64 33.76 33.728 92.768h-97.024l21.12-63.232 25.28-75.936z" fill="var(--umo-primary-color)"/></svg>