<svg xmlns="http://www.w3.org/2000/svg" width="16" height="16" viewBox="0 0 16 16" fill="none" stroke-width="1.5"><path d="M6.543 3.961s-1.03 1.203-2.494 1.892c-1.006.473-2.181.585-2.734.626-.2.015-.344.21-.277.398.293.82 1.112 2.801 2.658 4.347 2.126 2.126 3.659 2.968 4.142 3.202.1.048.215.03.299-.04.385-.326 1.5-1.278 2.21-1.987.891-.89 2.186-2.447 2.186-2.447m.48.055a.3.3 0 0 1-.425 0L6.325 3.743a.3.3 0 0 1 0-.424l.68-.68a1.5 1.5 0 0 1 2.121 0l1.357 1.356 1.604-2.02a1.629 1.629 0 1 1 2.279 2.295L12.34 5.853l1.353 1.352a1.5 1.5 0 0 1 0 2.121l-.68.68z" stroke-linecap="round" fill="none" vector-effect="non-scaling-stroke" stroke="currentColor"/></svg>