<svg viewBox="0 0 1024 1024" xmlns="http://www.w3.org/2000/svg" width="96" height="96"><path d="M480 164.571L580.571 376.87 461.824 512l158.5 193.06-79.25 154.369H73.143V164.57z" opacity=".12"/><path d="M566.857 164.571l99.109 212.444-118.547 134.948 159.16 193.354-79.58 154.112h323.858V164.57z" fill-opacity=".12"/><path d="M182.894 749.714v-85.357L315.209 525.75l157.312 132.206 56.759-63.744 90.917 110.884-22.803 44.617zm658.249 0H683.575l22.985-44.47-132.681-161.207 93.257-105.18 174.062 215.845z" fill-opacity=".12"/><path d="M255.99999999999997 347.429a73.143 73.143 0 1 0 146.286 0 73.143 73.143 0 1 0-146.286 0z" opacity=".12"/></svg>