<svg width="24" height="24" viewBox="0 0 48 48" fill="none" xmlns="http://www.w3.org/2000/svg"><path d="M9.583 27.182C7.867 28.354 7.009 30.293 7.009 33c0 4.06 4.991 11 9.492 11h11.515c4.405 0 7.08-3.85 7.08-6.94V24.6a3.253 3.253 0 0 0-3.243-3.253 3.235 3.235 0 0 0-3.245 3.226v.11" stroke="currentColor" stroke-width="3" stroke-linecap="round"/><path d="M10.981 29.445V7.662a3.217 3.217 0 0 1 6.435 0v15.986" stroke="currentColor" stroke-width="3" stroke-linecap="round"/><path d="M17.416 24v-4.192a2.804 2.804 0 0 1 5.608 0v4.62" stroke="currentColor" stroke-width="3" stroke-linecap="round" stroke-linejoin="round"/><path d="M23 24.658v-2.85a2.804 2.804 0 0 1 5.608 0v3.195" stroke="currentColor" stroke-width="3" stroke-linecap="round" stroke-linejoin="round"/><path d="M11 8h30" stroke="currentColor" stroke-width="3" stroke-linecap="round"/><path d="M36 12.5l1.667-1.5L41 8l-3.333-3L36 3.5" stroke="currentColor" stroke-width="3" stroke-linecap="round" stroke-linejoin="round"/></svg>