<svg width="24" height="24" viewBox="0 0 48 48" fill="none" xmlns="http://www.w3.org/2000/svg"><path d="M9 15V9.564c0-.892.087-1.215.25-1.54.164-.327.404-.583.71-.757.305-.174.608-.267 1.444-.267h25.192c.836 0 1.14.093 1.445.267.305.174.545.43.709.756.163.326.25.65.25 1.54V15" stroke="currentColor" stroke-width="4" stroke-linecap="round" stroke-linejoin="round"/><path d="M5 15h38v26H5V15z" stroke="currentColor" stroke-width="4" stroke-linejoin="round"/><path fill-rule="evenodd" clip-rule="evenodd" d="M13 26a3 3 0 1 0 0-6 3 3 0 0 0 0 6z" fill="currentColor"/><path d="M5.57 40.39L15 30l5 4 6-7 16.394 13.39" stroke="currentColor" stroke-width="4" stroke-linecap="round" stroke-linejoin="round"/></svg>