<svg width="24" height="24" viewBox="0 0 48 48" fill="none" xmlns="http://www.w3.org/2000/svg"><path clip-rule="evenodd" d="M5 10a2 2 0 0 1 2-2h34a2 2 0 0 1 2 2v28a2 2 0 0 1-2 2H7a2 2 0 0 1-2-2V10z" stroke="currentColor" stroke-width="3" stroke-linecap="round" stroke-linejoin="round"/><path clip-rule="evenodd" d="M14.5 18a1.5 1.5 0 1 0 0-3 1.5 1.5 0 0 0 0 3z" stroke="currentColor" stroke-width="3" stroke-linecap="round" stroke-linejoin="round"/><path d="M15 24l5 4 6-7 17 13v4a2 2 0 0 1-2 2H7a2 2 0 0 1-2-2v-4l10-10z" stroke="currentColor" stroke-width="3" stroke-linejoin="round"/></svg>