<svg width="24" height="24" viewBox="0 0 48 48" fill="none" xmlns="http://www.w3.org/2000/svg"><path d="M44 24a2 2 0 1 0-4 0h4zM24 8a2 2 0 1 0 0-4v4zm15 32H9v4h30v-4zM8 39V9H4v30h4zm32-15v15h4V24h-4zM9 8h15V4H9v4zm0 32a1 1 0 0 1-1-1H4a5 5 0 0 0 5 5v-4zm30 4a5 5 0 0 0 5-5h-4a1 1 0 0 1-1 1v4zM8 9a1 1 0 0 1 1-1V4a5 5 0 0 0-5 5h4z" fill="#333"/><path d="M6 35l10.693-9.802a2 2 0 0 1 2.653-.044L32 36M28 31l4.773-4.773a2 2 0 0 1 2.615-.186L42 31M30 12h12M36 6v12" stroke="currentColor" stroke-width="3" stroke-linecap="round" stroke-linejoin="round"/></svg>