<svg width="24" height="24" viewBox="0 0 48 48" fill="none" xmlns="http://www.w3.org/2000/svg"><path d="M44 23.994a2 2 0 0 0-4 0h4zm-20-16a2 2 0 1 0 0-4v4zm15 32H9v4h30v-4zm-31-1v-30H4v30h4zm32-15v15h4v-15h-4zm-31-16h15v-4H9v4zm0 32a1 1 0 0 1-1-1H4a5 5 0 0 0 5 5v-4zm30 4a5 5 0 0 0 5-5h-4a1 1 0 0 1-1 1v4zm-31-35a1 1 0 0 1 1-1v-4a5 5 0 0 0-5 5h4z" fill="currentColor"/><path d="M6 35l10.693-9.802a2 2 0 0 1 2.653-.044L32 36M28 31l4.773-4.773a2 2 0 0 1 2.615-.186L42 31M33 7l8 8M41 7l-8 8" stroke="currentColor" stroke-width="4" stroke-linecap="round" stroke-linejoin="round"/></svg>