<svg viewBox="0 0 1024 1024" xmlns="http://www.w3.org/2000/svg" data-spm-anchor-id="a313x.search_index.0.i0.3d203a817x9KY2" width="96" height="96" ><path stroke="currentColor" d="M896 192a64 64 0 0 1 64 64v512a64 64 0 0 1-64 64H128a64 64 0 0 1-64-64V256a64 64 0 0 1 64-64h768zm-768-64A128 128 0 0 0 0 256v512a128 128 0 0 0 128 128h768a128 128 0 0 0 128-128V256a128 128 0 0 0-128-128H128z" data-spm-anchor-id="a313x.search_index.0.i1.3d203a817x9KY2"/><path stroke="currentColor" d="M585.344 521.344a32 32 0 0 1 45.312 0L736 626.752l105.344-105.408a32.064 32.064 0 0 1 45.312 45.312l-128 128a31.872 31.872 0 0 1-45.312 0l-128-128a32 32 0 0 1 0-45.312z"/><path stroke="currentColor" d="M736 320a32 32 0 0 1 32 32v256a32 32 0 0 1-64 0V352a32 32 0 0 1 32-32zM227.84 704V448.64h3.584l91.392 207.296h49.536l90.88-207.36h3.584V704h68.672V320.064h-76.8L349.248 569.28h-2.496l-109.44-249.216H160V704h67.84z"/></svg>