<svg width="24" height="24" viewBox="0 0 48 48" fill="none" xmlns="http://www.w3.org/2000/svg"><path d="M42 18v22a2 2 0 0 1-2 2H8a2 2 0 0 1-2-2V18" stroke="currentColor" stroke-width="4" stroke-linecap="round" stroke-linejoin="round"/><path d="M6 8a2 2 0 0 1 2-2h32a2 2 0 0 1 2 2v10H6V8z" stroke="currentColor" stroke-width="4" stroke-linejoin="round"/><path fill-rule="evenodd" clip-rule="evenodd" d="M12 14a2 2 0 1 0 0-4 2 2 0 0 0 0 4zM18 14a2 2 0 1 0 0-4 2 2 0 0 0 0 4zM24 14a2 2 0 1 0 0-4 2 2 0 0 0 0 4z" fill="currentColor"/></svg>