<svg width="1em" height="1em" viewBox="0 0 24 24" fill="none" xmlns="http://www.w3.org/2000/svg" ><path d="M3.1 7.5V3.824l-.58.41a.9.9 0 1 1-1.04-1.469l1.528-1.08a1.2 1.2 0 0 1 1.892.98V7.5a.9.9 0 0 1-1.8 0zm.9 3.586a1 1 0 0 0-1 1V17H1.37a.5.5 0 0 0-.431.752l2.63 4.508a.5.5 0 0 0 .863 0l2.63-4.508A.5.5 0 0 0 6.63 17H5v-4.914a1 1 0 0 0-1-1zm6 8a1 1 0 0 0 0 2h12a1 1 0 1 0 0-2H10zm-1-7a1 1 0 0 1 1-1h12a1 1 0 0 1 0 2H10a1 1 0 0 1-1-1zM10 3a1 1 0 0 0 0 2h12a1 1 0 1 0 0-2H10z" fill="currentColor"/></svg>