<svg width="24" height="24" viewBox="0 0 48 48" fill="none" xmlns="http://www.w3.org/2000/svg"><path d="M13 12.432v-4.62A2.813 2.813 0 0 1 15.813 5h24.374A2.813 2.813 0 0 1 43 7.813v24.375A2.813 2.813 0 0 1 40.187 35h-4.67" stroke="currentColor" stroke-width="3" stroke-linecap="round" stroke-linejoin="round"/><path d="M32.188 13H7.811A2.813 2.813 0 0 0 5 15.813v24.374A2.813 2.813 0 0 0 7.813 43h24.375A2.813 2.813 0 0 0 35 40.187V15.814A2.813 2.813 0 0 0 32.187 13z" stroke="currentColor" stroke-width="3" stroke-linejoin="round"/></svg>