<svg width="44" height="44" viewBox="0 0 44 44" xmlns="http://www.w3.org/2000/svg"><g fill="none" fill-rule="evenodd"><path d="M36 29a1 1 0 0 1 1 1v1a1 1 0 0 1-1 1H19a1 1 0 0 1-1-1v-1a1 1 0 0 1 1-1h17zm0-9a1 1 0 0 1 1 1v1a1 1 0 0 1-1 1H19a1 1 0 0 1-1-1v-1a1 1 0 0 1 1-1h17zm0-9a1 1 0 0 1 1 1v1a1 1 0 0 1-1 1H19a1 1 0 0 1-1-1v-1a1 1 0 0 1 1-1h17z" fill-opacity=".163" fill="#000" fill-rule="nonzero"/><g fill="#000" fill-rule="nonzero"><path d="M15.416 12.416H8.584v-.88h6.832zM15.12 19.408H8.864v-.888h6.256v.888zm.448 4.704H8.432v-.888h7.136v.888zM15.184 28.056h-6.4v-.848h6.4v.848zm.384 5.584H8.416v-.84h7.152v.84zm-.72-2.912H9.192v-.848h5.656v.848z"/></g><path d="M0 0h44v44H0z"/></g></svg>