
<svg width="44" height="44" viewBox="0 0 44 44" xmlns="http://www.w3.org/2000/svg"><g fill="none" fill-rule="evenodd"><path d="M36 29a1 1 0 0 1 1 1v1a1 1 0 0 1-1 1H19a1 1 0 0 1-1-1v-1a1 1 0 0 1 1-1h17zm0-9a1 1 0 0 1 1 1v1a1 1 0 0 1-1 1H19a1 1 0 0 1-1-1v-1a1 1 0 0 1 1-1h17zm0-9a1 1 0 0 1 1 1v1a1 1 0 0 1-1 1H19a1 1 0 0 1-1-1v-1a1 1 0 0 1 1-1h17z" fill-opacity=".163" fill="#000" fill-rule="nonzero"/><path d="M0 0h44v44H0z"/><g fill="#000" fill-rule="nonzero"><path d="M9.648 11.728v.624h4.704v-.624H9.648zm-.136.968v1.712h.816l.216.512H8.432v.696h7.128v-.696h-2.136l.248-.512h.816v-1.712H9.512zm1.872 2.224l-.216-.512h1.624l-.248.512h-1.16zm2.28-1.136h-3.328v-.48h3.328v.48zM8.696 8.816v.672H11.6v.328H9.2v.64h5.712v-.64H12.4v-.328h2.928v-.672H12.4v-.4h-.8v.4H8.696zm6.712 1.936H8.584v1.28h.768v-.624h5.288v.624h.768v-1.28zM8.36 18.16v.752h4.624c.032 1.232.128 2.312.272 3.232.264 1.728.712 2.608 1.344 2.64.48 0 .848-.624 1.112-1.856l-.696-.392c-.168.856-.304 1.288-.416 1.288-.128-.008-.288-.44-.48-1.288-.184-.912-.296-2.12-.336-3.624h1.808v-.752h-.44a4.676 4.676 0 0 0-.392-.776l-.72.264c.12.16.232.328.328.512h-.6c-.008-.248-.008-.504-.008-.776h-.8c0 .256 0 .512.008.776H8.36zm.72 1.032v.608h3.256v-.608H9.08zm-.448.888v.624h4.128v-.624H8.632zm3.936.936H8.832v2.424h.824v-1.784h2.088v1.72h.824v-2.36zm-1.264 2.336l-.472.584c.64.288 1.16.608 1.576.96l.544-.656a9.288 9.288 0 0 0-1.648-.888zm-1.016-1.408v.464c-.032.456-.168.824-.424 1.112-.256.256-.744.48-1.48.656l.44.696c.784-.2 1.344-.488 1.696-.856.368-.4.568-.936.6-1.608v-.464h-.832zM10.16 30.68v.384h3.688v-.44a7.26 7.26 0 0 0 1.536.824l.352-.736c-.896-.28-1.576-.656-2.04-1.12h1.792v-.752h-3.576c.096-.176.176-.36.24-.552.592-.032 1.16-.056 1.712-.088.168.176.32.344.456.512l.688-.48c-.4-.448-.968-.968-1.704-1.576l-.632.4c.192.168.376.336.552.504-.824.04-1.664.072-2.528.104.432-.288.864-.624 1.288-1.008l-.8-.272c-.832.832-1.472 1.264-1.912 1.312l.136.68c.648-.016 1.272-.04 1.88-.056-.072.176-.16.352-.264.52H8.512v.752h1.872c-.52.464-1.232.84-2.128 1.12l.376.744a8.521 8.521 0 0 0 1.528-.776zm1.256-1.088H12.8c.192.264.424.512.696.752h-2.864c.296-.232.56-.48.784-.752zm-1.68 1.96v.728h4.52v-.728h-4.52zM8.848 32.8v.768h6.296V32.8H8.848z"/></g></g></svg>