<svg xmlns="http://www.w3.org/2000/svg" width="16" height="16" viewBox="0 0 16 16" fill="none" stroke-width="1.5"><path d="M7.734 7.747h6.5m-6.5 5.5h6.5M7.734 2.25h6.5" stroke-linecap="round" fill="none" vector-effect="non-scaling-stroke" stroke="currentColor"/><g fill="var(--umo-primary-color)"><path d="M2.75 6.113V2.127l-.817.802a.546.546 0 0 1-.778-.011.56.56 0 0 1 .012-.786L2.407.914C2.948.384 3.85.77 3.85 1.53v4.583a.553.553 0 0 1-.55.556.553.553 0 0 1-.55-.556zM2.483 8.992c.409-.322.904-.322 1.312 0 .383.301.493.87.204 1.277a4.4 4.4 0 0 1-.23.29c-.197.23-.456.508-.744.803a56.575 56.575 0 0 1-1.709 1.66c-.557.521-.181 1.447.588 1.447H4.64c.304 0 .55-.242.55-.54a.545.545 0 0 0-.55-.542H2.517c.405-.384.876-.841 1.3-1.275.297-.303.575-.6.795-.858.109-.128.208-.252.289-.366.075-.105.157-.233.205-.363.318-.857.158-1.761-.623-2.377a2.125 2.125 0 0 0-2.688 0c-.594.469-.692 1.098-.706 1.484a.545.545 0 0 0 .53.56.546.546 0 0 0 .569-.521c.01-.26.068-.5.295-.68z"/></g></svg>