<svg viewBox="0 0 1024 1024" xmlns="http://www.w3.org/2000/svg" width="200" height="200"><path d="M612.437 747.52l77.227 133.632A407.893 407.893 0 0 1 511.957 921.6a407.979 407.979 0 0 1-177.664-40.448l77.142-133.675C442.283 760.704 476.288 768 511.957 768a255.147 255.147 0 0 0 100.48-20.48z" fill="#FA930C"/><path d="M103.51 542.72h154.282a255.787 255.787 0 0 0 100.48 174.037l-77.099 133.675A409.301 409.301 0 0 1 103.51 542.72z" fill="#F25450"/><path d="M742.912 850.347L665.685 716.8a255.787 255.787 0 0 0 100.523-174.08h154.325a409.301 409.301 0 0 1-177.621 307.627z" fill="#F3C408"/><path d="M920.49 481.28H766.209a255.787 255.787 0 0 0-100.48-174.08l77.184-133.547A409.301 409.301 0 0 1 920.491 481.28z" fill="#10B563"/><path d="M281.173 173.568l77.099 133.675a255.787 255.787 0 0 0-100.48 173.994H103.509a409.301 409.301 0 0 1 177.622-307.626z" fill="#D74ECB"/><path d="M512 102.4c63.659 0 123.947 14.507 177.707 40.448L612.48 276.48A255.147 255.147 0 0 0 511.915 256c-35.67 0-69.632 7.296-100.48 20.48l-77.142-133.632A407.979 407.979 0 0 1 511.957 102.4z" fill="#216ED8"/></svg>