<svg width="1em" height="1em" viewBox="0 0 24 24" fill="none" xmlns="http://www.w3.org/2000/svg"><path d="M3.05 6.958V3.535l-.617.436a.75.75 0 0 1-.866-1.225l1.374-.971a1.02 1.02 0 0 1 1.61.832v4.351a.75.75 0 1 1-1.5 0zM22.9 2.614a1.5 1.5 0 0 0-2.122 0l-1.06 1.06 2.12 2.122 1.061-1.06a1.5 1.5 0 0 0 0-2.122zM20.786 6.85l-2.122-2.122-8.432 8.433a1.392 1.392 0 0 0-.387.74l-.335 1.883a.17.17 0 0 0 .195.197l1.89-.315a1.407 1.407 0 0 0 .77-.396l8.42-8.42zM9 20a1 1 0 0 0 0 2h13a1 1 0 0 0 0-2H9zm-3.524-7.851c.603-2.053-2.02-3.477-3.412-1.853l-.25.291a.7.7 0 1 0 1.063.911l.25-.29c.396-.463 1.13-.088 1.02.483L1.64 13.886c-.52.456-.198 1.314.494 1.314h2.979a.7.7 0 1 0 0-1.4h-1.25l1.263-1.105c.166-.145.287-.335.35-.546zm-2.819 6.732l-.008.015.004.003c-.139.335-.544.502-.906.374-.361-.129-.542-.504-.403-.838h.004l-.008-.005.002-.003.002-.007.008-.017.023-.049.032-.061.019-.033.031-.052a2.133 2.133 0 0 1 .337-.418c.321-.312.846-.627 1.603-.627 1.07 0 2.103.72 2.103 1.784a1.6 1.6 0 0 1-.477 1.135c.293.298.477.685.477 1.134C5.5 22.28 4.467 23 3.397 23c-.757 0-1.282-.314-1.603-.627a2.194 2.194 0 0 1-.419-.564l-.023-.049-.008-.017-.002-.006-.002-.005.008-.003h-.004c-.139-.335.042-.71.403-.838.362-.129.767.038.906.373l-.004.005a.53.53 0 0 0 .024.04l.001.002.01.015a.857.857 0 0 0 .125.152.757.757 0 0 0 .35.197c.07.018.148.028.238.028.478 0 .7-.296.7-.486s-.222-.487-.7-.487c-.388 0-.701-.29-.701-.648 0-.358.313-.649.7-.649.479 0 .702-.296.702-.486s-.223-.487-.701-.487a.795.795 0 0 0-.588.225.885.885 0 0 0-.135.167l-.017.03z" fill="currentColor"/></svg>