<svg width="24" height="24" viewBox="0 0 48 48" fill="none" xmlns="http://www.w3.org/2000/svg"><path d="M40 27V6a2 2 0 0 0-2-2H10a2 2 0 0 0-2 2v36a2 2 0 0 0 2 2h11M17 12h14M17 20h14M17 28h6" stroke="currentColor" stroke-width="3" stroke-linecap="round" stroke-linejoin="round"/><path d="M37 37c0 1.38-.56 2.63-1.465 3.535A5 5 0 1 1 37 37z"/><path d="M39 44l-3.465-3.465m0 0a5 5 0 1 0-7.071-7.07 5 5 0 0 0 7.072 7.07z" stroke="currentColor" stroke-width="3" stroke-linecap="round" stroke-linejoin="round"/></svg>