<svg xmlns="http://www.w3.org/2000/svg" width="16" height="16" viewBox="0 0 16 16" fill="none" stroke-width="1.5"><path fill-rule="evenodd" clip-rule="evenodd" d="M12.266 10.905a.402.402 0 0 0 .399.446h.171c.236 0 .424-.208.464-.46v-.005c.03-.16.078-.305.142-.432a.841.841 0 0 1 .253-.316.633.633 0 0 1 .395-.124c.228 0 .414.08.558.24.15.155.224.374.224.657a.983.983 0 0 1-.112.473c-.07.139-.159.263-.268.374-.104.11-.221.213-.35.308-.13.088-.25.177-.365.265-.223.172-.437.341-.64.507a3.246 3.246 0 0 0-.521.549l-.037.048a2.273 2.273 0 0 0-.328.614c-.084.25-.108.951.699.951h2.581c.236 0 .428-.207.428-.461v-.091c0-.255-.192-.462-.428-.462h-2.037l.036-.056c.12-.187.258-.4.411-.535.169-.15.342-.288.521-.416.179-.132.355-.265.529-.398.178-.133.337-.28.476-.44.14-.167.25-.355.335-.566a2.03 2.03 0 0 0 .127-.756c0-.282-.05-.537-.149-.764a1.648 1.648 0 0 0-.96-.93A1.851 1.851 0 0 0 14.141 9c-.313 0-.59.06-.834.183a1.602 1.602 0 0 0-.595.498c-.16.21-.278.46-.358.748-.043.151-.072.31-.09.476z" fill="var(--umo-primary-color)"/><path d="M10.75 1.75l-9 12.5m9 0l-9-12.5" stroke-linecap="round" fill="none" vector-effect="non-scaling-stroke" stroke="currentColor"/></svg>