<svg xmlns="http://www.w3.org/2000/svg" width="16" height="16" viewBox="0 0 16 16" fill="none" stroke-width="1.5"><path fill-rule="evenodd" clip-rule="evenodd" d="M12.665 3.351a.402.402 0 0 1-.4-.446c.018-.166.047-.325.09-.476.08-.288.199-.537.357-.748.16-.216.358-.382.596-.498.243-.122.521-.183.834-.183.238 0 .464.042.678.125a1.648 1.648 0 0 1 .96.93c.1.227.149.482.149.764 0 .294-.042.546-.127.756a2.08 2.08 0 0 1-.335.565c-.139.16-.298.308-.476.44-.174.134-.35.266-.529.4a6.289 6.289 0 0 0-.521.415c-.153.136-.29.348-.41.535l-.037.056h2.037c.236 0 .428.207.428.462v.09c0 .255-.192.462-.428.462H12.95c-.807 0-.783-.701-.7-.95.083-.229.196-.443.329-.615l.037-.049c.149-.199.322-.382.52-.548.204-.166.418-.335.641-.507a7.68 7.68 0 0 1 .365-.265c.129-.095.246-.197.35-.308.11-.11.198-.235.268-.374a.984.984 0 0 0 .112-.473c0-.283-.075-.501-.224-.657a.715.715 0 0 0-.558-.24.633.633 0 0 0-.395.124.842.842 0 0 0-.253.316 1.593 1.593 0 0 0-.141.432l-.001.006c-.04.251-.228.46-.464.46h-.171z" fill="var(--umo-primary-color)"/><path d="M10.75 1.75l-9 12.5m9 0l-9-12.5" stroke-linecap="round" fill="none" vector-effect="non-scaling-stroke" stroke="currentColor"/></svg>