<svg width="24" height="24" viewBox="0 0 48 48" fill="none" xmlns="http://www.w3.org/2000/svg"><path d="M4 14V5a1 1 0 0 1 1-1h14a1 1 0 0 1 1 1v38a1 1 0 0 1-1 1H5a1 1 0 0 1-1-1v-9M44 34v9a1 1 0 0 1-1 1H29a1 1 0 0 1-1-1V5a1 1 0 0 1 1-1h14a1 1 0 0 1 1 1v9M28 24l16 .013M4 24.013L20 24" stroke="currentColor" stroke-width="4" stroke-linecap="round"/><path d="M39.227 28.778l1.592-1.591L44 24.005l-3.181-3.182-1.592-1.591M8.755 28.786l-1.59-1.59-3.183-3.183 3.182-3.182 1.591-1.59" stroke="currentColor" stroke-width="4" stroke-linecap="round" stroke-linejoin="round"/></svg>