<svg width="24" height="24" viewBox="0 0 48 48" fill="none" xmlns="http://www.w3.org/2000/svg"><rect x="8" y="4" width="32" height="40" rx="2" stroke="currentColor" stroke-width="3" stroke-linejoin="round"/><path d="M21 14h12M21 24h12M21 34h12" stroke="currentColor" stroke-width="3" stroke-linecap="round" stroke-linejoin="round"/><path fill-rule="evenodd" clip-rule="evenodd" d="M15 16a2 2 0 1 0 0-4 2 2 0 0 0 0 4zM15 26a2 2 0 1 0 0-4 2 2 0 0 0 0 4zM15 36a2 2 0 1 0 0-4 2 2 0 0 0 0 4z" fill="currentColor"/></svg>