<svg width="24" height="24" viewBox="0 0 48 48" fill="none" xmlns="http://www.w3.org/2000/svg"><path d="M25 40H7a3 3 0 0 1-3-3V11a3 3 0 0 1 3-3h34a3 3 0 0 1 3 3v13.941" stroke="currentColor" stroke-width="3" stroke-linecap="round" stroke-linejoin="round"/><path d="M4 11a3 3 0 0 1 3-3h34a3 3 0 0 1 3 3v9H4v-9z" stroke="currentColor" stroke-width="3"/><path d="M32 35h12M38 29v12" stroke="currentColor" stroke-width="3" stroke-linecap="round" stroke-linejoin="round"/><circle r="2" transform="matrix(0 -1 -1 0 10 14)" fill="currentColor"/><circle r="2" transform="matrix(0 -1 -1 0 16 14)" fill="currentColor"/></svg>