<svg width="200" height="200" viewBox="0 0 200 200" xmlns="http://www.w3.org/2000/svg"><g fill="none" fill-rule="nonzero"><path d="M14 7.576v184.848c0 3.94 3.939 7.576 7.574 7.576h157.852c3.938 0 7.574-3.94 7.574-7.576V43.94L143.068.303 21.574 0C17.636 0 14 3.94 14 7.576z" fill="#FF7C01"/><path d="M143 0v34.5c0 3.9 3.965 7.5 7.624 7.5H186L143 0z" fill="#FFBF87"/><path d="M95.676 76.324L115.986 146h-12.76L98 126.86H78.86L73.612 146H62l19.162-69.676h14.514zm40.648 18V146H124.13V94.324h12.194zM88.12 90.259l-6.38 25.547h13.348L88.12 90.259zM130.227 74a7.26 7.26 0 0 1 7.259 7.26l-.004.239a7.26 7.26 0 0 1-14.514-.24l.003-.24A7.26 7.26 0 0 1 130.227 74z" fill="#FFF"/></g></svg>