<svg width="200" height="200" viewBox="0 0 200 200" xmlns="http://www.w3.org/2000/svg"><g fill="none" fill-rule="nonzero"><path d="M14 7.576v184.848c0 3.94 3.939 7.576 7.574 7.576h157.852c3.938 0 7.574-3.94 7.574-7.576V43.94L143.068.303 21.574 0C17.636 0 14 3.94 14 7.576z" fill="#4184A7"/><path d="M143 0v34.5c0 3.9 3.965 7.5 7.624 7.5H186L143 0z" fill="#96D6FF"/><path d="M115.5 69c-4.02.155-8.895 2.68-11.788 6.06-2.583 2.99-4.855 7.787-4.234 12.37 4.486.35 9.07-2.291 11.866-5.67 2.797-3.36 4.68-8.06 4.156-12.76zm-1.534 19.285c-5.69.077-10.953 3.729-13.866 3.729-3.166 0-8.04-3.574-13.207-3.477-6.797.097-13.05 3.943-16.546 10.021-7.05 12.235-1.806 30.374 5.069 40.318 3.36 4.855 7.36 10.332 12.643 10.118 5.068-.194 6.991-3.282 13.109-3.282 6.117 0 7.846 3.282 13.206 3.185 5.457-.097 8.914-4.972 12.254-9.827 3.846-5.632 5.438-11.09 5.535-11.38-.116-.059-10.623-4.079-10.74-16.197-.097-10.119 8.274-14.993 8.643-15.226-4.7-6.875-12.022-7.827-14.643-7.943-.486-.02-.971-.04-1.457-.04z" fill="#FFF"/></g></svg>