<svg width="200" height="200" viewBox="0 0 200 200" xmlns="http://www.w3.org/2000/svg"><g fill="none" fill-rule="nonzero"><path d="M14 7.576v184.848c0 3.94 3.939 7.576 7.574 7.576h157.852c3.938 0 7.574-3.94 7.574-7.576V43.94L143.068.303 21.574 0C17.636 0 14 3.94 14 7.576z" fill="#CE65CC"/><path d="M143 0v34.5c0 3.9 3.965 7.5 7.624 7.5H186L143 0z" fill="#E293FF"/><path d="M51 78h24.941c5.726 0 10.275 1.255 13.569 3.843 3.45 2.824 5.255 6.902 5.255 12.235 0 2.902-.785 5.49-2.353 7.765-1.726 2.51-4.157 4.157-7.138 4.941v.157c4.863 1.098 7.608 4.314 8.236 9.804l.94 9.02c.315 3.45 1.491 6.196 3.373 8.235h-9.96c-1.334-1.726-2.118-4.157-2.432-7.294l-.706-6.902c-.313-3.059-1.255-5.255-2.823-6.588-1.647-1.412-4.079-2.04-7.216-2.04h-14.51V134H51V78zm9.176 7.843v17.49h14.51c3.608 0 6.353-.784 8.236-2.274 1.725-1.569 2.588-3.765 2.588-6.588 0-3.06-.863-5.255-2.588-6.589-1.726-1.411-4.471-2.039-8.236-2.039h-14.51zM105.666 78h23.216c13.49 0 20.314 5.726 20.314 17.177 0 11.529-6.824 17.333-20.47 17.333h-13.883V134h-9.176V78zm9.177 7.843v18.824h13.333c4.079 0 7.06-.785 8.941-2.196 1.883-1.49 2.824-3.922 2.824-7.294 0-3.373-1.02-5.726-2.902-7.138-1.882-1.49-4.863-2.196-8.863-2.196h-13.333z" fill="#FFF"/></g></svg>