<svg width="200" height="200" viewBox="0 0 200 200" xmlns="http://www.w3.org/2000/svg"><g fill="none" fill-rule="nonzero"><path d="M14 7.576v184.848c0 3.94 3.939 7.576 7.574 7.576h157.852c3.938 0 7.574-3.94 7.574-7.576V43.94L143.068.303 21.574 0C17.636 0 14 3.94 14 7.576z" fill="#40BA57"/><path d="M143 0v34.5c0 3.9 3.965 7.5 7.624 7.5H186L143 0z" fill="#AAFF96"/><path d="M137.853 85.406c1.25 1.782 1.53 3.797.843 6.047l-12.89 42.469c-.594 2-1.79 3.68-3.586 5.039-1.797 1.36-3.711 2.039-5.742 2.039H73.212c-2.406 0-4.727-.836-6.961-2.508-2.234-1.672-3.789-3.726-4.664-6.164-.75-2.094-.781-4.078-.094-5.953 0-.125.047-.547.14-1.266.095-.718.157-1.296.188-1.734.032-.25-.015-.586-.14-1.008-.125-.422-.172-.726-.14-.914.062-.344.187-.672.374-.984.188-.313.445-.68.774-1.102.328-.422.585-.789.773-1.101.719-1.188 1.422-2.618 2.11-4.29.687-1.671 1.156-3.101 1.406-4.288.093-.313.101-.782.023-1.407-.078-.625-.086-1.062-.023-1.312.093-.344.359-.782.796-1.313.438-.531.704-.89.797-1.078.657-1.125 1.313-2.562 1.97-4.312.655-1.75 1.046-3.157 1.171-4.22.031-.28-.008-.78-.117-1.5-.11-.718-.102-1.155.023-1.312.125-.406.469-.882 1.031-1.43.563-.546.907-.898 1.032-1.054.593-.812 1.258-2.133 1.992-3.96.734-1.83 1.164-3.337 1.289-4.524.031-.25-.016-.649-.14-1.196-.126-.547-.157-.96-.094-1.242.062-.25.203-.531.421-.844.22-.312.5-.671.844-1.078.344-.406.61-.734.797-.984.25-.375.508-.852.774-1.43.265-.578.5-1.125.703-1.64a23.83 23.83 0 0 1 .75-1.688c.297-.61.601-1.11.914-1.5.312-.39.726-.758 1.242-1.102a3.13 3.13 0 0 1 1.687-.539c.61-.015 1.352.07 2.227.258l-.047.14c1.188-.28 1.984-.421 2.39-.421h35.673c2.312 0 4.093.875 5.343 2.625s1.532 3.781.844 6.094l-12.844 42.468c-1.125 3.72-2.242 6.118-3.351 7.196-1.11 1.078-3.117 1.617-6.024 1.617H68.337c-.844 0-1.437.234-1.781.703-.344.5-.36 1.172-.047 2.016.75 2.187 3 3.281 6.75 3.281h43.266c.906 0 1.78-.242 2.625-.727.843-.484 1.39-1.132 1.64-1.945l14.063-46.266c.218-.687.297-1.578.234-2.671 1.188.468 2.11 1.14 2.766 2.015zm-49.875.094c-.125.406-.094.758.093 1.055.188.297.5.445.938.445h28.5c.406 0 .805-.148 1.195-.445.39-.297.649-.649.774-1.055l.984-3c.125-.406.094-.758-.094-1.055-.187-.297-.5-.445-.937-.445h-28.5c-.407 0-.805.148-1.196.445-.39.297-.648.649-.773 1.055l-.984 3zm-3.891 12c-.125.406-.094.758.094 1.055.187.297.5.445.937.445h28.5c.407 0 .805-.148 1.196-.445.39-.297.648-.649.773-1.055l.984-3c.125-.406.094-.758-.093-1.055-.188-.296-.5-.445-.938-.445h-28.5c-.406 0-.805.149-1.195.445-.39.297-.649.649-.774 1.055l-.984 3z" fill="#FFF"/></g></svg>