<svg width="200" height="200" viewBox="0 0 200 200" xmlns="http://www.w3.org/2000/svg"><g fill-rule="nonzero" fill="none"><path d="M14 7.576v184.848c0 3.94 3.939 7.576 7.574 7.576h157.852c3.938 0 7.574-3.94 7.574-7.576V43.94L143.068.303 21.574 0C17.636 0 14 3.94 14 7.576z" fill="#95A8B7"/><path d="M143 34.5c0 3.9 3.965 7.5 7.624 7.5H186L143 0v34.5z" fill="#C8DDFF"/><path d="M53 112.824c0-12.865 10.43-23.295 23.294-23.295 2.213 0 4.315.408 6.342.985 2.23-10.541 11.571-18.455 22.776-18.455 12.864 0 23.294 10.43 23.294 23.294 0 2.056-.355 4.012-.85 5.91.285-.017.559-.086.85-.086 9.65 0 17.47 7.826 17.47 17.47v5.824c0 9.648-7.821 17.47-17.47 17.47H76.294C63.43 141.941 53 131.511 53 118.647v-5.823z" fill="#FFF"/></g></svg>