<svg width="200" height="200" viewBox="0 0 200 200" xmlns="http://www.w3.org/2000/svg"><g fill-rule="nonzero" fill="none"><path d="M14 7.576v184.848c0 3.94 3.939 7.576 7.574 7.576h157.852c3.938 0 7.574-3.94 7.574-7.576V43.94L143.068.303 21.574 0C17.636 0 14 3.94 14 7.576z" fill="#FC7100"/><path d="M143 0v34.5c0 3.9 3.965 7.5 7.624 7.5H186L143 0z" fill="#FFB596"/><path fill="#FFF" d="M72.684 74h66.861l-11.814 59.983L92.012 146 61 133.983l3.155-16.017h13.209l-1.31 6.617 18.747 7.246 21.6-7.246 3.017-15.238H65.745l2.586-13.385h53.712l1.689-8.594H70.059z"/></g></svg>