<svg width="200" height="200" viewBox="0 0 200 200" xmlns="http://www.w3.org/2000/svg"><g fill-rule="nonzero" fill="none"><path d="M21.668 0C17.834 0 14 3.828 14 7.656v184.689c0 3.827 3.834 7.655 7.668 7.655h157.664c3.834 0 7.668-3.828 7.668-7.655V43.54L142.911 0H21.667z" fill="#00BDFF"/><path d="M143 0v35.44c0 3.78 3.78 7.56 7.56 7.56H186L143 0z" fill="#8DE1FF"/><path d="M100 98.702c7.752 0 14.051 6.199 14.051 13.828h27.134C141.185 90.12 122.773 72 100 72c-22.773 0-41.186 18.12-41.186 40.53h26.65c0-7.63 6.783-13.828 14.536-13.828zm43.608 23.364H56.392c-1.938 0-3.392 1.43-3.392 3.338v15.258c0 1.908 1.454 3.338 3.392 3.338h87.216c1.938 0 3.392-1.43 3.392-3.338v-15.258c0-1.907-1.454-3.338-3.392-3.338zm-26.65 16.689c-3.391 0-5.814-2.384-5.814-5.722 0-3.338 2.423-5.722 5.815-5.722 3.392 0 5.814 2.384 5.814 5.722-.484 3.338-2.907 5.722-5.814 5.722zm16.475 0c-3.392 0-5.814-2.384-5.814-5.722 0-3.338 2.422-5.722 5.814-5.722s5.814 2.384 5.814 5.722c0 3.338-2.422 5.722-5.814 5.722z" fill="#FFF"/></g></svg>