<svg width="200" height="200" viewBox="0 0 200 200" xmlns="http://www.w3.org/2000/svg"><g fill-rule="nonzero" fill="none"><path d="M14 7.576v184.848c0 3.94 3.939 7.576 7.574 7.576h157.852c3.938 0 7.574-3.94 7.574-7.576V43.94L143.068.303 21.574 0C17.636 0 14 3.94 14 7.576z" fill="#05B67B"/><path d="M143 0v34.5c0 3.9 3.965 7.5 7.624 7.5H186L143 0z" fill="#99FFB4"/><path d="M135.55 146.08h-16.47c-1.8-3.33-3.78-6.57-6.03-9.99l-12.69-19.26L87.76 136c-2.16 3.24-4.41 7.11-6.03 10.08H65.35c5.31-6.75 6.57-8.46 8.46-11.07l19.08-26.82-16.56-23.4c-2.43-3.42-5.13-6.93-7.92-10.35h16.11c1.17 2.7 3.33 6.48 5.76 10.08l10.26 15.3 9.99-15.3c3.33-5.22 4.41-7.02 5.67-10.08h16.02c-2.52 3.15-5.13 6.57-7.83 10.35l-16.56 23.31 19.08 26.82c2.07 2.97 4.23 5.76 8.64 11.16z" fill="#FFF"/></g></svg>