<svg width="200" height="200" viewBox="0 0 200 200" xmlns="http://www.w3.org/2000/svg"><g fill-rule="nonzero" fill="none"><path d="M14 7.656v184.689c0 3.827 3.834 7.655 7.668 7.655h157.664c3.834 0 7.668-3.828 7.668-7.655V43.54L142.911 0H21.667C17.834 0 14 3.828 14 7.656z" fill="#32B3C7"/><path d="M143 0v35.44c0 3.78 3.78 7.56 7.56 7.56H186L143 0z" fill="#B2F5FF"/><path d="M41 82h32.218v8.872H51.739v12.14h18.21v8.871H51.74v14.008h22.413v8.872H41.467V82H41zm52.296 25.214L79.755 82h11.673l5.136 10.74c1.401 2.334 2.335 5.135 3.736 8.404h.467c1.4-3.269 2.334-5.603 3.268-8.405L109.171 82h10.74l-13.541 25.68 14.474 26.149h-11.673l-5.603-11.673c-1.4-2.802-2.334-5.603-4.202-8.405h-.467c-1.4 3.268-2.335 6.07-3.735 8.405l-5.604 11.673H78.354l14.942-26.615zM128.316 82h31.75v8.872h-21.478v12.14h18.21v8.871h-18.21v14.008H161v8.872h-32.685V82z" fill="#FFF"/></g></svg>