<svg width="200" height="200" viewBox="0 0 200 200" xmlns="http://www.w3.org/2000/svg"><g fill="none" fill-rule="nonzero"><path d="M14 7.576v184.848c0 3.94 3.939 7.576 7.574 7.576h157.852c3.938 0 7.574-3.94 7.574-7.576V43.94L143.068.303 21.574 0C17.636 0 14 3.94 14 7.576z" fill="#5E89C1"/><path d="M143 0v34.5c0 3.9 3.965 7.5 7.624 7.5H186L143 0z" fill="#B9D8FF"/><path d="M105.16 148.28v-3.36l-6.72-.84c-.88-.08-1.6-.16-2.16-.24-.56-.08-1.02-.26-1.38-.54-.36-.28-.62-.68-.78-1.2-.16-.52-.24-1.34-.24-2.46v-28.56h19.92c2.4 0 4 .14 4.8.42.8.28 1.44 1.26 1.92 2.94l2.52 7.8h2.28c-.24-4.64-.36-9.48-.36-14.52 0-2.56.02-4.82.06-6.78.04-1.96.1-3.7.18-5.22h-2.52l-1.92 7.8c-.32 1.52-.74 2.5-1.26 2.94-.52.44-1.5.66-2.94.66H93.88V82.64c0-1.84.24-3.14.72-3.9.48-.76 1.4-1.14 2.76-1.14h23.4c1.28 0 2.36.16 3.24.48.88.32 1.66.96 2.34 1.92.68.96 1.36 2.34 2.04 4.14.68 1.8 1.46 4.18 2.34 7.14H133c-.08-1.04-.12-2.28-.12-3.72v-4.92c0-1.84.02-3.72.06-5.64.04-1.92.1-3.4.18-4.44-1.76.08-3.92.14-6.48.18-2.56.04-5.64.06-9.24.06h-4.55c-11.248-.005-20.37-.025-27.37-.06-7.92-.04-12.8-.1-14.64-.18v2.88l6.84.84c1.28.16 2.1.66 2.46 1.5.36.84.54 2.14.54 3.9v58.08c0 1.52-.22 2.58-.66 3.18-.44.6-1.34.98-2.7 1.14l-7.44.84v3.36c1.84-.16 4.24-.28 7.2-.36 2.96-.08 6.08-.12 9.36-.12 3.28 0 6.52.04 9.72.12 3.2.08 6.2.2 9 .36z" fill="#FFF"/></g></svg>