<svg width="200" height="200" viewBox="0 0 200 200" xmlns="http://www.w3.org/2000/svg"><g fill="none" fill-rule="nonzero"><path d="M14 7.576v184.848c0 3.94 3.939 7.576 7.574 7.576h157.852c3.938 0 7.574-3.94 7.574-7.576V43.94L143.068.303 21.574 0C17.636 0 14 3.94 14 7.576z" fill="#0DB1FD"/><path d="M143 0v34.5c0 3.9 3.965 7.5 7.624 7.5H186L143 0z" fill="#DBF4FF"/><g fill="#FFF"><path d="M61.205 64.045h77.597l-6.347 73.663-32.898 10.102-31.289-10.102-7.063-73.663zm62.131 22.26l1.878-11.175-49.973-.09 3.218 33.524h32.54v8.761l-10.906 3.844-11.353-4.022-.715-4.739-8.94.09 1.34 11.8 19.132 6.705 20.114-6.347 2.592-26.998h-35.4l-.895-11.353h37.368z"/></g></g></svg>