<svg width="200" height="200" viewBox="0 0 200 200" xmlns="http://www.w3.org/2000/svg"><g fill-rule="nonzero" fill="none"><path d="M14 7.576v184.848c0 3.94 3.939 7.576 7.574 7.576h157.852c3.938 0 7.574-3.94 7.574-7.576V43.94L143.068.303 21.574 0C17.636 0 14 3.94 14 7.576z" fill="#FE7846"/><path d="M143 0v34.5c0 3.9 3.965 7.5 7.624 7.5H186L143 0z" fill="#F99"/><path d="M90.57 129.543l-11.09-15.19c-1.47-2.012-3.852-2.012-5.322 0l-20.446 28.003C52.243 144.37 53.12 146 55.67 146h93.677c2.552 0 3.41-1.628 1.926-3.636L118.87 98.511c-1.493-2.021-3.889-2.008-5.373 0L90.57 129.543zM66 84a9 9 0 0 0 18 0 9 9 0 0 0-18 0z" fill="#FFF"/></g></svg>