<svg width="200" height="200" viewBox="0 0 200 200" xmlns="http://www.w3.org/2000/svg"><g fill="none" fill-rule="nonzero"><path d="M14 7.656v184.689c0 3.827 3.834 7.655 7.668 7.655h157.664c3.834 0 7.668-3.828 7.668-7.655V43.54L142.911 0H21.667C17.834 0 14 3.828 14 7.656z" fill="#FF4800"/><path d="M143 0v35.44c0 3.78 3.78 7.56 7.56 7.56H186L143 0z" fill="#FFC8B2"/><path d="M66.36 91.15h9.242c-.383 2.74-.446 4.588-.446 8.285v30.146c0 3.76-1.148 6.374-3.633 8.222-2.104 1.53-5.29 2.422-8.86 2.422-3.059 0-5.672-.637-7.903-1.912-1.53-.892-2.358-1.657-3.76-3.442l7.266-4.206c1.147 2.167 2.55 3.186 4.652 3.186 2.677 0 3.952-1.402 3.952-4.397v-30.02c0-3.696-.127-5.863-.51-8.285zm0-14.15h9.37v8.094h-9.37V77zm41.746 50.733v-4.143c-2.549 2.422-4.142 3.314-6.755 4.015-1.849.51-3.888.765-5.928.765-7.775 0-12.492-4.015-12.492-10.707 0-4.462 2.805-8.477 7.202-10.325 4.143-1.721 8.86-2.358 17.973-2.55v-3.25c0-3.697-2.485-5.609-7.33-5.609-2.548 0-5.162.701-6.627 1.849-1.211.892-1.785 1.784-2.55 4.079l-8.158-1.466c1.466-3.697 2.613-5.354 5.035-7.075 3.123-2.294 6.692-3.25 12.173-3.25 6.119 0 9.816 1.083 12.556 3.76 2.167 2.04 2.996 4.461 2.996 8.795v17.145c0 3.378.127 5.099.51 7.967h-8.605zm0-14.213v-3.187c-12.173.255-16.953 2.359-16.953 7.33 0 2.995 2.23 4.844 5.8 4.844 3.378 0 6.692-1.275 8.859-3.378 1.53-1.53 2.294-3.378 2.294-5.609zM151 91.15l-2.23 8.03c-2.678-.765-4.016-1.02-5.673-1.02-3.187 0-5.609 1.02-7.393 3.123-1.594 1.848-2.231 3.314-2.613 6.373v11.791c0 3.442.127 5.29.446 8.286h-9.114c.318-3.123.446-4.971.446-8.286V99.435c0-3.888-.064-5.673-.446-8.286h8.668v5.991c2.294-4.525 6.246-6.692 11.982-6.692 1.53 0 3.059.191 5.927.701z" fill="#FFF"/></g></svg>