<svg width="200" height="200" viewBox="0 0 200 200" xmlns="http://www.w3.org/2000/svg"><g fill="none" fill-rule="nonzero"><path d="M14 7.576v184.848c0 3.94 3.939 7.576 7.574 7.576h157.852c3.938 0 7.574-3.94 7.574-7.576V43.94L143.068.303 21.574 0C17.636 0 14 3.94 14 7.576z" fill="#3173B7"/><path d="M143 0v34.5c0 3.9 3.965 7.5 7.624 7.5H186L143 0z" fill="#6FB6FF"/><path d="M134.626 142.476c-3.106 9.306-15.033 9.955-25.278 11.524h-9.533c-8.317-.907-16.318-2.13-23.06-5.103 17.629 4.24 43.323 3.925 55.653-5.098.668-.485 1.285-1.436 2.218-1.323zm-53.656-6.855c-2.104.53-7.56-.22-7.762 2.66-.063 1.108 1.865 2.419 3.106 2.885 7.227 2.722 21.75 3.15 33.702 1.77 5.544-.642 15.965-2.507 14.63-8.203 1.663.201 3.15 1.26 3.326 2.886.668 6.111-13.388 8.688-19.065 9.305-12.35 1.355-27.786 1.09-37.25-2.211-3.08-1.071-6.804-3.043-6.653-5.986.271-4.97 12.242-6.344 15.966-3.106zm6.433-6.653c.687.22-.252.598-.227.882 2.016 3.51 11.996 2.268 17.075 1.115 1.02-.246 2.041-.951 2.879-.882 2.577.17 3.547 2.854 5.765 3.32-7.07 4.323-24.207 6.074-31.257.662-.334-3.944 2.835-4.385 5.765-5.097zm43.896-12.64c.378 7.72-8.065 12.041-14.189 12.413 2.835-2.697 10.333-7.044 8.871-13.294-.605-2.533-3.749-4.058-7.32-3.327 4.567-3.906 12.304-2.375 12.638 4.209zm-46.782 3.548c1.046.132-.73.756-.44 1.556 3.811 3.768 15.675 2.703 21.503 1.55 1.222-.245 2.438-.976 3.327-.882 2.218.196 3.635 2.772 5.544 3.1-6.741 3.037-19.758 4.474-29.266 2.659-2.457-.466-6.741-1.796-6.874-3.768-.201-2.684 4.234-3.812 6.206-4.215zm4.395-10.004l.25.029-.239.107c-2.3.976-5.908 1.236-7.512 3.442 1.689 1.26 4.152 1.216 6.433 1.329 9.356.422 21.063-.378 29.046-1.77.264.573-1.11 1.575-1.998 2.211-5.034 3.686-20.684 4.725-31.484 3.995-3.61-.246-11.882-1.198-11.97-4.436-.114-3.925 10.017-4.347 14.188-4.656.76-.059 2.135-.35 3.286-.25zm31.066-28.788l.011-.007c-2.545 1.796-5.027 3.327-7.755 5.545-2.06 1.682-5.79 3.988-5.986 7.094-.315 4.726 6.962 9.092 3.1 15.077-1.462 2.281-3.944 3.258-7.095 4.657-.378-.694.82-1.26 1.33-1.998 4.839-7.006-5.028-9.33-3.768-17.956 1.207-8.228 10.791-11.164 19.818-12.366l.345-.046zM105.58 66c1.55 1.468 2.659 4.19 2.659 7.094 0 8.582-9.085 13.547-13.521 19.293-.977 1.285-2.243 3.257-2.218 5.317.044 4.682 4.877 9.911 6.654 13.748-3.107-2.041-6.874-4.763-9.54-7.983-2.658-3.188-5.317-8.38-2.879-12.853 3.654-6.741 14.542-10.755 18.398-17.956.939-1.758 1.67-4.442.447-6.66z" fill="#FFF"/></g></svg>