<svg width="200" height="200" viewBox="0 0 200 200" xmlns="http://www.w3.org/2000/svg"><g fill-rule="nonzero" fill="none"><path d="M14 7.576v184.848c0 3.94 3.939 7.576 7.574 7.576h157.852c3.938 0 7.574-3.94 7.574-7.576V43.94L143.068.303 21.574 0C17.636 0 14 3.94 14 7.576z" fill="#008AFC"/><path d="M143 0v34.5c0 3.9 3.965 7.5 7.624 7.5H186L143 0z" fill="#96CFFF"/><path d="M149.594 120.36c-1.236-6.799-5.563-12.671-18.853-17.925-4.636-2.164-9.581-3.71-11.127-7.109-.618-2.163-.618-3.09-.309-4.327.927-4.018 5.563-5.254 9.581-4.018 2.473.618 4.636 2.473 6.182 5.563 6.49-4.327 6.49-4.327 10.817-7.108-1.545-2.473-2.472-3.71-3.708-4.945-4.018-4.327-9.273-6.491-17.618-6.491l-4.327.618c-4.327.927-8.345 3.4-10.817 6.182-7.109 8.036-4.945 21.944 3.4 27.816 8.654 6.49 21.017 7.727 22.562 13.6 1.545 7.417-5.563 9.58-12.363 8.653-4.945-1.236-7.727-3.708-10.818-8.345l-11.435 6.491c1.236 3.09 2.781 4.327 4.945 6.8 10.817 10.817 38.17 10.508 43.116-6.182.309-.618 1.545-4.327.618-10.2-.155.619.154.928.154.928zM93.188 75.083H79.28v36.316c0 7.727.31 14.835-.927 16.999-2.164 4.327-7.418 3.709-9.89 3.09-2.627-1.236-3.864-2.781-5.41-5.254-.308-.927-.617-1.545-.617-1.545L51 131.797c1.854 4.018 4.636 7.417 8.345 9.58 5.254 3.092 12.363 4.328 20.09 2.473 4.945-1.545 8.963-4.327 11.435-8.654 3.091-5.872 2.473-12.98 2.473-21.017V75.391c-.155 0-.155-.31-.155-.31z" fill="#FFF"/></g></svg>