<svg width="200" height="200" viewBox="0 0 200 200" xmlns="http://www.w3.org/2000/svg"><g fill-rule="nonzero" fill="none"><path d="M21.668 0C17.834 0 14 3.828 14 7.656v184.689c0 3.827 3.834 7.655 7.668 7.655h157.664c3.834 0 7.668-3.828 7.668-7.655V43.54L142.911 0H21.667z" fill="#DD697C"/><path d="M143 0v35.44c0 3.78 3.78 7.56 7.56 7.56H186L143 0z" fill="#FFCAD3"/><path d="M73.375 73h7.75v7.778h-7.75v19.444c0 4.296-3.47 7.778-7.75 7.778 4.28 0 7.75 3.482 7.75 7.778v19.444h7.75V143h-7.75c-4.146-1.05-7.75-3.5-7.75-7.778v-15.555c0-4.296-3.47-7.778-7.75-7.778H54v-7.778h3.875c4.28 0 7.75-3.482 7.75-7.778V80.778c0-4.296 3.47-7.778 7.75-7.778zm54.25 0c4.28 0 7.75 3.482 7.75 7.778v15.555c0 4.296 3.47 7.778 7.75 7.778H147v7.778h-3.875c-4.28 0-7.75 3.482-7.75 7.778v15.555c0 4.296-3.47 7.778-7.75 7.778h-7.75v-7.778h7.75v-19.444c0-4.296 3.47-7.778 7.75-7.778-4.28 0-7.75-3.482-7.75-7.778V80.778h-7.75V73h7.75zM100.5 119.667a3.882 3.882 0 0 1 3.875 3.889 3.882 3.882 0 0 1-3.875 3.889 3.882 3.882 0 0 1-3.875-3.89 3.882 3.882 0 0 1 3.875-3.888zm-15.5 0a3.882 3.882 0 0 1 3.875 3.889A3.882 3.882 0 0 1 85 127.445a3.882 3.882 0 0 1-3.875-3.89A3.882 3.882 0 0 1 85 119.668zm31 0a3.882 3.882 0 0 1 3.875 3.889 3.882 3.882 0 0 1-3.875 3.889 3.882 3.882 0 0 1-3.875-3.89 3.882 3.882 0 0 1 3.875-3.888z" fill="#FFF"/></g></svg>