<svg width="200" height="200" viewBox="0 0 200 200" xmlns="http://www.w3.org/2000/svg"><g fill-rule="nonzero" fill="none"><path d="M14 7.576v184.848c0 3.94 3.939 7.576 7.574 7.576h157.852c3.938 0 7.574-3.94 7.574-7.576V43.94L143.068.303 21.574 0C17.636 0 14 3.94 14 7.576z" fill="#008AFC"/><path d="M143 34.5c0 3.9 3.965 7.5 7.624 7.5H186L143 0v34.5z" fill="#96CFFF"/><path d="M112.078 144.444H87.033c-.911 0-1.366.505-1.366 1.516v2.525c0 1.01.455 1.515 1.366 1.515h25.045c.911 0 1.366-.505 1.366-1.515v-2.525c0-.505-.91-1.516-1.366-1.516zm17.97-72.594c-.46-1.388-1.381-1.85-2.763-1.85h-55.73c-1.381 0-2.303.925-2.303 2.312L59.12 103.754c-.46 1.387.46 2.775 1.842 3.237h35.925v37.453h6.448v-37.453h35.925c1.382-.462 2.303-1.85 1.842-3.237L130.05 71.85z" fill="#FFF"/></g></svg>