<svg width="200" height="200" viewBox="0 0 200 200" xmlns="http://www.w3.org/2000/svg"><g fill="none" fill-rule="nonzero"><path d="M14 7.576v184.848c0 3.94 3.939 7.576 7.574 7.576h157.852c3.938 0 7.574-3.94 7.574-7.576V43.94L143.068.303 21.574 0C17.636 0 14 3.94 14 7.576z" fill="#009688"/><path d="M143 0v34.5c0 3.9 3.965 7.5 7.624 7.5H186L143 0z" fill="#97E6FF"/><path d="M53.942 134V89.942h.485l10.65 33.487h12.266l10.813-33.487h.484V134h12.104V78H81.378l-9.683 31.55h-.485L61.93 78H42v56h11.942zm78.433 0c16.46 0 27.273-6.375 27.273-28 0-23.32-10.812-28-27.273-28H113.17v56h19.205zm-.646-10.49h-6.294V88.33h6.294c10.087 0 15.25 3.227 15.25 17.671 0 13.637-4.921 17.51-15.25 17.51z" fill="#FFF"/></g></svg>