<svg width="200" height="200" viewBox="0 0 200 200" xmlns="http://www.w3.org/2000/svg"><g fill-rule="nonzero" fill="none"><path d="M14 7.576v184.848c0 3.94 3.939 7.576 7.574 7.576h157.852c3.938 0 7.574-3.94 7.574-7.576V43.94L143.068.303 21.574 0C17.636 0 14 3.94 14 7.576z" fill="#CA82F1"/><path d="M143 0v34.5c0 3.9 3.965 7.5 7.624 7.5H186L143 0z" fill="#EBBEFF"/><path d="M79.99 77.978L143 65l-.06 18.54v46.347h-.044c0 5.384-5.983 10.757-14.298 12.463-9.106 1.865-17.533-1.368-18.824-7.223-1.29-5.86 5.044-12.122 14.15-13.987 4.236-.868 8.308-.623 11.602.463V85.08L87.334 95.1v45.916h-.048c.007 5.38-5.98 10.75-14.295 12.455-9.106 1.87-17.533-1.364-18.824-7.223-1.29-5.855 5.044-12.118 14.15-13.983 4.236-.871 8.309-.623 11.602.463V77.978h.07z" fill="#FFF"/></g></svg>