<svg width="200" height="200" viewBox="0 0 200 200" xmlns="http://www.w3.org/2000/svg"><g fill-rule="nonzero" fill="none"><path d="M14 7.576v184.848c0 3.94 3.939 7.576 7.574 7.576h157.852c3.938 0 7.574-3.94 7.574-7.576V43.94L143.068.303 21.574 0C17.636 0 14 3.94 14 7.576z" fill="#00BF40"/><path d="M143 34.5c0 3.9 3.965 7.5 7.624 7.5H186L143 0v34.5z" fill="#99FF96"/><path d="M104.667 70H118v80h-13.333V70zm22 40H140v40h-13.333v-40zM83.333 96.667h13.334V150H83.333V96.667zM60 123.333h13.333V150H60v-26.667z" fill="#FFF"/></g></svg>