<svg width="200" height="200" viewBox="0 0 200 200" xmlns="http://www.w3.org/2000/svg"><g fill-rule="nonzero" fill="none"><path d="M14 7.576v184.848c0 3.94 3.939 7.576 7.574 7.576h157.852c3.938 0 7.574-3.94 7.574-7.576V43.94L143.068.303 21.574 0C17.636 0 14 3.94 14 7.576z" fill="#FFBD39"/><path d="M143 34.5c0 3.9 3.965 7.5 7.624 7.5H186L143 0v34.5z" fill="#FFD58A"/><path d="M67.355 131.334l8.337 8.397-8.869 4.713h78.066V150H56v-5.556h6.148l5.207-13.11zM94.542 101.4l7.612 9.492-24.65 27.014-8.699-9.491 25.737-27.015zm35.886-30.3c2.49 2.507.094 8.177.002 8.39l-.002.006-4.378 5.1.936.962c4.607.364 3.3 5.375 3.25 5.557l-.001.005-18.049 20.025c.722 3.338-1.083 4.45-1.083 4.45-1.359 1.745-3.357.862-3.587.752l-.022-.01c-2.527-2.596-1.083-6.304-1.083-6.304l16.604-18.542c1.265-1.515.684-2.651-.019-3.335l-17.942 20.91-8.7-9.491 24.65-27.38c1.087-1.095 6.886-3.65 9.424-1.095z" fill="#FFF"/></g></svg>