<svg width="200" height="200" viewBox="0 0 200 200" xmlns="http://www.w3.org/2000/svg"><g fill-rule="nonzero" fill="none"><path d="M14 7.576v184.848c0 3.94 3.939 7.576 7.574 7.576h157.852c3.938 0 7.574-3.94 7.574-7.576V43.94L143.068.303 21.574 0C17.636 0 14 3.94 14 7.576z" fill="#F95E5D"/><path d="M143 34.5c0 3.9 3.965 7.5 7.624 7.5H186L143 0v34.5z" fill="#FFA5A6"/><path d="M139.604 124.346c0 7.59-7.172 7.59-10.895 7.59-5.846-.272-11.675-2.706-16.196-6.773-9.024 1.907-17.522 4.885-26.02 8.407C79.847 145.772 73.474 152 67.9 152c-1.071 0-2.397-.272-3.178-.817-2.397-1.09-3.722-3.523-3.722-5.956 0-1.906.527-7.59 21.244-16.814 4.776-8.679 8.498-18.157 11.421-27.653-2.65-5.43-8.225-18.43-4.249-25.203a6.81 6.81 0 0 1 6.646-3.523c2.125 0 4.249 1.09 5.574 2.978 2.924 4.067 2.651 12.474-1.053 24.93a63.105 63.105 0 0 0 13.546 17.886c4.521-.817 9.024-1.635 13.8-1.635 10.35.563 11.947 5.448 11.675 8.153zm-11.675-1.362c-1.853 0-3.723 0-5.575.545 2.125 1.09 4.249 1.634 6.646 1.888 1.598.273 3.177 0 4.249-.544-.29-.8-1.072-1.889-5.32-1.889zm-60.283 22.77l.526-.273c2.924-1.089 5.575-3.25 7.172-6.228-3.177 1.362-5.574 3.523-7.698 6.5zm30.54-34.427l-.272.545-.272-.272c-1.852 5.156-4.249 10.295-6.646 15.18l.527-.273v.545c4.775-1.907 9.823-3.25 14.87-4.34l-.272-.272h.527c-2.887-3.523-5.81-7.3-8.461-11.113zM96.59 79.08h-.527c-.272 0-.526 0-.799.273-.799 3.795-.272 7.862 1.326 11.385 1.071-3.795 1.325-7.863 0-11.658z" fill="#FFF"/></g></svg>