<svg width="200" height="200" viewBox="0 0 200 200" xmlns="http://www.w3.org/2000/svg"><g fill="none" fill-rule="nonzero"><path d="M14 7.576v184.848c0 3.94 3.939 7.576 7.574 7.576h157.852c3.938 0 7.574-3.94 7.574-7.576V43.94L143.068.303 21.574 0C17.636 0 14 3.94 14 7.576z" fill="#8283F1"/><path d="M143 0v34.5c0 3.9 3.965 7.5 7.624 7.5H186L143 0z" fill="#AEAFFF"/><path d="M65.756 98.027h-9.183l-3.77 22.9h8.58s10.44.323 10.932-14.837c.492-8.708-6.56-8.063-6.56-8.063zm78.38 0h-9.183l-3.77 22.9h8.58s10.44.323 10.932-14.837c.492-8.708-6.56-8.063-6.56-8.063zm-83.19 31.415l-9.291-.086-2.625 14.406h-9.947l8.964-54.186s12.735.194 21.098 0c8.362-.193 16.586 6.78 12.735 22.578-4.592 18.836-20.934 17.288-20.934 17.288zm44.71 0s2.388-12.592 3.434-21.335c.43-3.6 2.306-9.693-2.665-9.707-4.163-.013-10.388-.051-10.388-.051l-5.248 31.094h-9.838l9.183-54.446h10.074l-2.531 14.575h10.385s13.773-1.286 12.134 12.132c-1.64 13.417-4.701 27.739-4.701 27.739h-9.839v-.001zm54.604-17.288c-4.591 18.836-20.933 17.288-20.933 17.288l-9.292-.086-2.624 14.406h-9.948l8.964-54.186s12.735.194 21.098 0c8.362-.194 16.586 6.78 12.735 22.578z" fill="#FFF"/></g></svg>