<svg width="200" height="200" viewBox="0 0 200 200" xmlns="http://www.w3.org/2000/svg"><g fill="none" fill-rule="evenodd"><g fill-rule="nonzero"><path d="M14 7.656v184.689c0 3.827 3.834 7.655 7.668 7.655h157.664c3.834 0 7.668-3.828 7.668-7.655V43.54L142.911 0H21.667C17.834 0 14 3.828 14 7.656z" fill="#83C620"/><path d="M143 0v35.44c0 3.78 3.78 7.56 7.56 7.56H186L143 0z" fill="#DFA"/><path d="M149.816 82c6.736 0 11.924 1.31 14.48 2.544l-2.477 9.395c-2.866-1.23-6.43-2.234-12.157-2.234-9.834 0-17.27 5.55-17.27 16.795 0 10.708 6.738 17.022 16.417 17.022 2.71 0 4.879-.307 5.807-.768V113.89h-8.053v-9.164h19.435v27.348H166c-3.64 1.23-10.532 2.926-17.423 2.926-9.526 0-16.417-2.388-21.218-7.01-4.8-4.47-7.433-11.246-7.357-18.873C120.08 91.86 132.702 82 149.816 82zm-61.054 0v22.99h.234c1.167-2.006 2.413-3.856 3.583-5.706L104.496 82h14.566l-17.37 22.14L120 134h-13.866l-12.853-22.451-4.519 5.481V134H77V82h11.762zM48.75 82c7.185 0 12.307 1.377 15.748 4.132C67.784 88.74 70 93.027 70 98.084c0 5.055-1.681 9.345-4.739 12.254-3.974 3.752-9.86 5.434-16.74 5.434-1.53 0-2.907-.075-3.977-.23V134H33V83.073C36.593 82.459 41.638 82 48.75 82zm.613 8.804c-2.37 0-3.975.23-4.816.46v15.245c.993.23 2.216.304 3.897.304 6.193 0 10.015-3.142 10.015-8.426 0-4.749-3.287-7.583-9.096-7.583z" fill="#FFF"/></g></g></svg>