<svg width="200" height="200" viewBox="0 0 200 200" xmlns="http://www.w3.org/2000/svg"><g fill-rule="nonzero" fill="none"><path d="M14 7.576v184.848c0 3.94 3.939 7.576 7.574 7.576h157.852c3.938 0 7.574-3.94 7.574-7.576V43.94L143.068.303 21.574 0C17.636 0 14 3.94 14 7.576z" fill="#FA5D40"/><path d="M143 0v34.5c0 3.9 3.965 7.5 7.624 7.5H186L143 0z" fill="#FFA9A9"/><path d="M88.71 146.08H75.39c.54-3.6.72-6.75.72-11.61V85.78c0-4.32-.18-7.56-.72-11.61 3.87.18 6.66.27 11.43.27h18.81c8.73 0 14.85 2.07 19.17 6.39 3.69 3.6 5.58 9 5.58 15.48 0 6.84-2.07 12.42-6.03 16.56-4.41 4.41-10.53 6.48-19.17 6.48H87.99v15.03c0 4.86.18 8.28.72 11.7zM87.99 109h17.19c8.28 0 12.78-4.41 12.78-12.33 0-3.6-.99-6.57-2.97-8.64-2.07-2.25-5.04-3.24-9.81-3.24H87.99V109z" fill="#FFF"/></g></svg>