<svg width="200" height="200" viewBox="0 0 200 200" xmlns="http://www.w3.org/2000/svg"><g fill-rule="nonzero" fill="none"><path d="M14 7.576v184.848c0 3.94 3.939 7.576 7.574 7.576h157.852c3.938 0 7.574-3.94 7.574-7.576V43.94L143.068.303 21.574 0C17.636 0 14 3.94 14 7.576z" fill="#1E9CEF"/><path d="M143 0v34.5c0 3.9 3.965 7.5 7.624 7.5H186L143 0z" fill="#95D5FF"/><path d="M78.604 74.1c-9.4-.325-20.604.244-20.604.244V146h11.49v-25.94c15.433 1.31 32.34-4.7 32.34-23.025.768-11.908-8.345-22.178-20.356-22.94a21.98 21.98 0 0 0-2.87.005zm41.264 30.76c.102-3.734 7.928-6.028 19.178-.919V92.865a32.775 32.775 0 0 0-20.513-.653c-7.971 3.076-11.942 12.038-8.868 20.016a15.487 15.487 0 0 0 1.929 3.545c5.839 6.945 20.38 9.536 17.985 16.318a10.184 10.184 0 0 1-12.065 2.999 29.986 29.986 0 0 1-8.814-3.896v11.729a26.559 26.559 0 0 0 9.028 2.805 26.14 26.14 0 0 0 18.342-4.172c6.532-6.031 6.941-16.22.916-22.757a16.09 16.09 0 0 0-6.204-4.169c-11.179-5.436-10.996-6.956-10.914-9.77zm-38.57 4.085a54.205 54.205 0 0 1-12.048 1.037V84.355a38.7 38.7 0 0 1 11.935.55c5.295 1.443 8.789 6.565 8.263 12.113.273 5.4-3.078 10.303-8.15 11.927z" fill="#FFF"/></g></svg>