<svg width="200" height="200" viewBox="0 0 200 200" xmlns="http://www.w3.org/2000/svg"><g fill="none" fill-rule="nonzero"><path d="M14 7.576v184.848c0 3.94 3.939 7.576 7.574 7.576h157.852c3.938 0 7.574-3.94 7.574-7.576V43.94L143.068.303 21.574 0C17.636 0 14 3.94 14 7.576z" fill="#3572A7"/><path d="M143 0v34.5c0 3.9 3.965 7.5 7.624 7.5H186L143 0z" fill="#97BAFF"/><path d="M129.822 88.145c5.688 1.422 8.058 6.636 8.058 10.902v19.432c0 4.74-3.318 9.954-9.006 9.954H99.488v5.213h19.907v.57c-.006 2.37-.073 5.701-.948 7.014-1.896 3.318-3.792 5.213-8.057 6.635-8.058 1.422-11.85 1.422-18.485.474-4.74-.474-9.006-4.265-9.006-9.005v-19.907c0-2.37 4.266-7.583 9.48-7.583h18.01c7.11 0 11.376-6.636 11.376-13.271V88.145h8.057zM108.02 69.661c4.74.474 9.005 4.265 9.005 9.005v19.907c0 2.37-4.266 7.583-9.48 7.583h-18.01c-7.11 0-11.375 6.636-11.375 13.271v10.428h-8.058c-5.687-1.422-8.057-6.636-8.057-10.902V99.521c-.474-4.74 2.844-9.48 8.531-9.48 7.11-.474 29.86-.474 29.86-.474v-5.213H80.53c0-2.37 0-6.162.948-7.584 1.895-3.318 3.791-5.213 8.057-6.635 8.057-1.422 11.85-1.422 18.485-.474z" fill="#FFF"/></g></svg>