<svg width="200" height="200" viewBox="0 0 200 200" xmlns="http://www.w3.org/2000/svg"><g fill="none" fill-rule="nonzero"><path d="M14 7.576v184.848c0 3.94 3.939 7.576 7.574 7.576h157.852c3.938 0 7.574-3.94 7.574-7.576V43.94L143.068.303 21.574 0C17.636 0 14 3.94 14 7.576z" fill="#7293DF"/><path d="M143 0v34.5c0 3.9 3.965 7.5 7.624 7.5H186L143 0z" fill="#AED1FF"/><path d="M68.073 143c13.065 0 20.679-4.136 20.679-16.073 0-9.306-2.914-12.69-14.005-15.51-7.99-1.973-9.4-2.537-9.4-5.733 0-3.478 1.692-4.7 7.99-4.7 4.512 0 10.151 1.128 12.877 1.88l.564-10.433c-2.726-1.034-8.271-1.692-13.911-1.692-14.757 0-20.303 5.64-20.303 15.133 0 8.554 2.538 11.843 13.441 14.381 8.178 1.974 9.776 3.008 9.776 7.05s-2.538 5.076-8.46 5.076c-4.606 0-10.433-.846-15.321-2.35v11.373C56.512 142.436 62.151 143 68.073 143zm45.776-.564v-33.274c1.503-5.546 5.17-7.332 10.809-7.332 6.486 0 8.272 2.632 8.272 9.494v31.112h13.629v-34.684c0-11.185-4.23-17.013-16.825-17.013-7.52 0-13.16 2.35-15.885 7.144V71h-13.63v71.436h13.63z" fill="#FFF"/></g></svg>