<svg width="200" height="200" viewBox="0 0 200 200" xmlns="http://www.w3.org/2000/svg"><g fill-rule="nonzero" fill="none"><path d="M14 7.576v184.848c0 3.94 3.939 7.576 7.574 7.576h157.852c3.938 0 7.574-3.94 7.574-7.576V43.94L143.068.303 21.574 0C17.636 0 14 3.94 14 7.576z" fill="#FDBA0D"/><path d="M143 0v34.5c0 3.9 3.965 7.5 7.624 7.5H186L143 0z" fill="#FFDEB2"/><path d="M97.532 148.206l-22.993-42.734L58.99 93.676l38.542 54.53zm44.13-54.53l-15.548 11.796-22.993 42.734 38.542-54.53zm-19.419 12.254h-44l22 42.448 22-42.454v.006zm-47.026-3.716L58.622 89.793 68.73 78.216l14.324 6.898-7.831 17.1h-.006zm10.62-15.989l-7.594 16.667h44l-7.58-16.649H85.835v-.018zm39.42 15.983l16.608-12.415-10.078-11.577-14.33 6.898 7.8 17.118v-.024zm-10.613-19.027H85.836L71.887 76.38l12.659-5.298h31.389L128.6 76.38l-13.956 6.802z" fill="#FFF"/></g></svg>