<svg width="200" height="200" viewBox="0 0 200 200" xmlns="http://www.w3.org/2000/svg"><g fill-rule="nonzero" fill="none"><path d="M21.668 0C17.834 0 14 3.828 14 7.656v184.689c0 3.827 3.834 7.655 7.668 7.655h157.664c3.834 0 7.668-3.828 7.668-7.655V43.54L142.911 0H21.667z" fill="#5E89C1"/><path d="M143 0v35.44c0 3.78 3.78 7.56 7.56 7.56H186L143 0z" fill="#B9D8FF"/><path d="M87.64 112.725c0 3.765-1.573 6.85-4.727 9.261-3.153 2.412-7.455 3.614-12.92 3.614-3.083 0-5.923-.364-8.505-1.092-2.576-.722-4.74-1.519-6.488-2.377v-7.784h.376c2.213 1.648 4.685 2.96 7.4 3.93 2.721.968 5.325 1.456 7.81 1.456 3.09 0 5.513-.495 7.26-1.477 1.74-.983 2.61-2.535 2.61-4.651 0-1.622-.466-2.858-1.413-3.69-.946-.831-2.77-1.546-5.464-2.136-.996-.22-2.297-.481-3.905-.777a58.641 58.641 0 0 1-4.393-.962c-3.668-.961-6.265-2.37-7.796-4.225-1.531-1.855-2.297-4.136-2.297-6.842 0-1.697.362-3.298 1.065-4.796.717-1.498 1.789-2.844 3.237-4.019 1.392-1.154 3.174-2.075 5.332-2.748s4.566-1.01 7.232-1.01c2.492 0 5.02.302 7.574.907 2.555.598 4.678 1.333 6.37 2.191v7.42h-.37c-1.796-1.305-3.974-2.404-6.543-3.304-2.569-.893-5.082-1.347-7.553-1.347-2.568 0-4.74.488-6.508 1.457-1.768.961-2.66 2.411-2.66 4.328 0 1.697.537 2.975 1.609 3.84 1.044.86 2.742 1.567 5.081 2.103 1.302.295 2.75.59 4.358.886 1.6.295 2.944.57 4.016.81 3.272.736 5.792 2.007 7.56 3.8 1.768 1.82 2.652 4.232 2.652 7.234zM127 140h-6.796v-19.536c-2.092 1.819-4.178 3.164-6.25 4.05-2.066.885-4.307 1.324-6.716 1.324-4.797 0-8.619-1.859-11.472-5.57-2.86-3.718-4.286-8.841-4.286-15.378 0-3.488.498-6.564 1.5-9.24.996-2.678 2.322-4.922 3.957-6.74a16.818 16.818 0 0 1 5.598-4.097 16.328 16.328 0 0 1 6.796-1.453c2.166 0 4.084.243 5.76.723 1.675.48 3.377 1.197 5.113 2.143l.43-1.744h6.36V140H127zm-6.72-25.717V91.398c-1.909-.842-3.592-1.435-5.063-1.772-1.471-.337-3.066-.506-4.783-.506-3.99 0-7.027 1.335-9.114 3.997-2.08 2.67-3.12 6.343-3.12 11.028 0 4.732.842 8.372 2.518 10.913 1.676 2.548 4.317 3.822 7.916 3.822 2.012 0 4.017-.425 6.028-1.287a25.023 25.023 0 0 0 5.618-3.31zm24 10.357h-6.72V68h6.72v56.64z" fill="#FFF"/></g></svg>