<svg width="200" height="200" viewBox="0 0 200 200" xmlns="http://www.w3.org/2000/svg"><g fill="none" fill-rule="nonzero"><path d="M14 7.576v184.848c0 3.94 3.939 7.576 7.574 7.576h157.852c3.938 0 7.574-3.94 7.574-7.576V43.94L143.068.303 21.574 0C17.636 0 14 3.94 14 7.576z" fill="#4D98FE"/><path d="M143 34.5c0 3.9 3.965 7.5 7.624 7.5H186L143 0v34.5z" fill="#AFD1FF"/><path d="M106.493 82.387v48.957c0 4.842.18 7.98.717 11.656H93.671c.538-3.766.718-6.814.718-11.656V82.387H82.284c-5.29 0-9.146.18-12.284.628V71c3.228.448 7.083.628 12.194.628h35.507c6.456 0 9.773-.18 13.18-.628v12.015c-3.317-.448-6.724-.628-13.18-.628h-11.208z" fill="#FFF"/></g></svg>