<svg width="200" height="200" viewBox="0 0 200 200" xmlns="http://www.w3.org/2000/svg"><g fill-rule="nonzero" fill="none"><path d="M14 7.576v184.848c0 3.94 3.939 7.576 7.574 7.576h157.852c3.938 0 7.574-3.94 7.574-7.576V43.94L143.068.303 21.574 0C17.636 0 14 3.94 14 7.576z" fill="#8283F1"/><path d="M143 0v34.5c0 3.9 3.965 7.5 7.624 7.5H186L143 0z" fill="#AAABFE"/><path d="M125.402 117.25v-12.599c0-1.26.422-2.71 1.005-3.314l13.848-14.195c4.531-4.642 9.745-5.947 9.745-.97v49.564c0 4.97-5.214 3.673-9.745-.97l-13.848-14.195c-.583-.595-1.005-2.053-1.005-3.321zm-6.547 13.98c0 4.218-3.434 7.636-7.668 7.636h-53.52c-4.234 0-7.667-3.418-7.667-7.635V90.662c0-4.216 3.433-7.635 7.667-7.635h53.52c4.234 0 7.668 3.419 7.668 7.635v40.569z" fill="#FFF"/></g></svg>