<svg width="200" height="200" viewBox="0 0 200 200" xmlns="http://www.w3.org/2000/svg"><g fill="none" fill-rule="nonzero"><path d="M14 7.576v184.848c0 3.94 3.939 7.576 7.574 7.576h157.852c3.938 0 7.574-3.94 7.574-7.576V43.94L143.068.303 21.574 0C17.636 0 14 3.94 14 7.576z" fill="#4DBA87"/><path d="M143 0v34.5c0 3.9 3.965 7.5 7.624 7.5H186L143 0z" fill="#78F0B8"/><g><path fill="#99F8CC" d="M109.741 71.637l-10.23 17.72-10.23-17.72H55.213l44.298 76.726 44.298-76.726z"/><path fill="#2F9264" d="M109.741 71.637l-10.23 17.72-10.23-17.72H72.932l26.579 46.036 26.579-46.036z"/></g></g></svg>