<svg width="200" height="200" viewBox="0 0 200 200" xmlns="http://www.w3.org/2000/svg"><g fill="none" fill-rule="nonzero"><path d="M14 7.576v184.848c0 3.94 3.939 7.576 7.574 7.576h157.852c3.938 0 7.574-3.94 7.574-7.576V43.94L143.068.303 21.574 0C17.636 0 14 3.94 14 7.576z" fill="#DF4253"/><path d="M143 0v34.5c0 3.9 3.965 7.5 7.624 7.5H186L143 0z" fill="#FF9BA6"/><path d="M138.863 86.534c-.087-6.051-1.265-7.2-7.172-6.504-3.574.418-7.125 1.12-10.676 1.758-2.379.435-4.729.992-7.096 1.468-3.018.604-3.69 1.636-2.93 4.526.284 1.08.615 2.153.794 3.25.494 2.97-.278 4.548-2.86 6.103-5.39 3.25-12.464 2.698-17.575-1.253-4.155-3.215-6.673-7.502-8.675-12.237-2.036-4.828-2.89-5.153-8.1-4.242a1054.355 1054.355 0 0 1-19.008 3.134c-3.958.615-5.397 3.19-4.103 6.962 1.793 5.234 5.356 8.982 9.969 11.524 4.868 2.669 10.136 4.607 15.173 6.992 1.398.661 2.582 1.775 3.858 2.686-1.212.87-2.303 2.118-3.655 2.547-5.692 1.8-11.094 4.16-15.881 7.746-4.793 3.586-8.013 8.13-8.013 14.413 0 3.348.72 3.97 4.038 3.412 6.093-1.021 12.162-2.089 18.243-3.127 3.238-.551 4.241-1.613 4.572-4.863.07-.72.006-1.456.133-2.164 1.074-6.162 4.375-10.711 10.862-11.547 12.864-1.653 23.941 4.985 27.927 17.129 1.16 3.534 3.191 4.56 6.882 3.76 7.502-1.625 14.999-3.273 22.524-4.799 1.451-.29 1.8-.963 1.846-2.257.145-4.079-1.724-7.38-4.109-10.415-4.78-6.075-11.326-9.667-18.26-12.678-2.222-.963-4.467-1.868-6.573-3.046-1.277-.72-1.08-1.753.33-2.188 1.874-.586 3.83-.905 5.716-1.456 6.44-1.88 12.126-7.131 11.813-14.634h.006z" fill="#FFF"/></g></svg>