<svg width="200" height="200" viewBox="0 0 200 200" xmlns="http://www.w3.org/2000/svg"><g fill-rule="nonzero" fill="none"><path fill="#F95F5D" d="M14 71.955h173v57.955H14z"/><path d="M187 71.955V24.999C187 19.217 182.081 14 176.179 14H24.82C18.92 14 14 19.217 14 24.999v46.956h173z" fill="#55C7F7"/><path d="M14 129.045v46.956C14 181.783 18.887 187 24.751 187H176.25c5.864 0 10.751-5.217 10.751-10.999v-46.956H14z" fill="#7ECF3B"/><path fill="#FDAF42" d="M79.74 14h39.79v173H79.74z"/><path d="M119.307 87.79v24.104H79.098V87.789h40.209zm6.516-9.78H72.721c-.97 0-2.496.964-2.496 2.48v38.29c0 .965.97 2.48 2.496 2.48h52.963c.97 0 2.496-.964 2.496-2.48V80.628c-.555-1.928-1.525-2.617-2.357-2.617z" fill="#FFF"/></g></svg>